<svg xmlns="http://www.w3.org/2000/svg"
    viewBox="-80 -80 1160 1160">
    <g transform="scale(1,-1) translate(0,-1000)"><path fill="currentColor" d="M641 895Q638 893 635.0 891.0Q632 889 631 887Q630 885 629.0 864.0Q628 843 627 816L626 750L581 795Q544 832 532.5 839.5Q521 847 507 843Q500 841 462.0 803.5Q424 766 328 668L289 628V615Q289 603 294.0 596.0Q299 589 308 587Q318 586 325.5 588.0Q333 590 341 597Q344 600 347.0 602.0Q350 604 350 604Q350 604 350.5 569.5Q351 535 351 486V369H169V406Q169 431 169.5 437.0Q170 443 174 443Q180 443 193.0 450.5Q206 458 212 465Q216 469 221.0 471.5Q226 474 234 476Q260 482 275.0 501.5Q290 521 290 550Q290 567 287.0 578.0Q284 589 275 600Q271 605 268.5 611.0Q266 617 265 624Q263 637 256.0 650.5Q249 664 241 670Q238 673 233.5 678.5Q229 684 227 689Q220 701 208.0 711.0Q196 721 185 725Q174 728 157.0 728.0Q140 728 130 725Q119 721 109.0 713.0Q99 705 93 695Q90 690 83.5 682.0Q77 674 71 668Q60 657 54.5 645.0Q49 633 49 620Q49 618 46.5 613.5Q44 609 41 605Q18 578 22.0 541.5Q26 505 54 486Q59 483 65.5 480.0Q72 477 77 476Q83 475 88.0 472.0Q93 469 98 463Q107 455 118.0 449.0Q129 443 136 443H143V369H85Q54 369 39.5 368.0Q25 367 24 366Q21 363 21.0 356.0Q21 349 24 346Q25 344 64.0 343.5Q103 343 204 343H381V307Q381 288 382.0 279.5Q383 271 385 269Q386 268 395.0 267.0Q404 266 415 266L442 265V231Q443 216 444.0 205.0Q445 194 446 193Q447 191 453.5 190.0Q460 189 472 189L495 188L496 154Q496 139 497.0 128.5Q498 118 499 116Q501 114 508.5 113.5Q516 113 529 112L557 111L558 81Q558 68 559.0 58.0Q560 48 561 47Q563 45 603.5 44.5Q644 44 768 44Q852 44 913.5 44.0Q975 44 976 45Q979 46 979.5 70.5Q980 95 980 195V343H994Q1000 343 1004.5 344.0Q1009 345 1011 346Q1014 349 1014.0 356.0Q1014 363 1011 366Q1009 367 973.5 368.0Q938 369 846 369H684V486Q684 535 684.0 569.5Q684 604 684 604Q685 604 687.5 602.0Q690 600 694 597Q704 587 718.5 587.0Q733 587 740 596Q743 599 744.0 603.5Q745 608 745 615Q745 625 742.0 629.5Q739 634 723 651Q713 661 704.0 670.0Q695 679 692 682L684 689V782Q684 829 683.0 854.0Q682 879 681 883Q677 893 665.5 896.5Q654 900 641 895ZM658 795Q658 757 657.5 738.5Q657 720 655 721Q654 721 653.5 741.0Q653 761 653 796Q653 832 653.5 851.0Q654 870 655 870Q657 870 657.5 850.5Q658 831 658 795ZM619 716Q660 675 689.5 644.5Q719 614 719 613Q719 612 691.5 639.0Q664 666 625 705L531 799H503L409 705Q370 666 342.5 639.0Q315 612 315 613Q315 614 346 646Q377 678 415.0 716.0Q453 754 484 785Q516 817 517 817Q518 817 547.5 787.5Q577 758 619 716ZM588 703 658 633V369H515V457Q515 531 512.5 546.0Q510 561 499 566Q491 568 455.5 568.0Q420 568 412 566Q401 561 399.0 546.0Q397 531 397 457V369H376V632L446 703Q474 732 495.0 752.5Q516 773 517 773Q518 773 539.0 752.5Q560 732 588 703ZM175 701Q184 697 192.0 689.0Q200 681 205 671Q207 667 212.0 660.5Q217 654 221 651Q231 641 236.0 631.0Q241 621 241 609Q241 599 242.0 595.5Q243 592 249 587Q261 575 264.5 561.0Q268 547 262 533Q256 519 243.5 510.0Q231 501 214 498Q207 497 202.5 494.5Q198 492 193 486Q189 482 184.0 478.0Q179 474 176 472L169 468V515L187 534Q197 545 201.0 550.0Q205 555 205 560Q205 571 197.0 573.0Q189 575 178 566L169 558V583Q169 603 166.5 608.5Q164 614 156 614Q147 614 145.0 607.0Q143 600 143 566V524L135 532Q128 539 119.5 540.0Q111 541 109 536Q106 529 109.0 522.5Q112 516 125 503Q137 492 140.0 487.0Q143 482 143 477Q143 473 142.5 470.5Q142 468 140 468Q136 468 126.0 476.0Q116 484 112 490Q110 493 106.5 495.0Q103 497 98 498Q81 501 68.5 510.0Q56 519 50 533Q44 547 47.0 560.0Q50 573 63 586Q68 592 70.0 596.5Q72 601 72 610Q74 624 80.5 636.0Q87 648 97 654Q101 657 105.0 661.0Q109 665 110 668Q112 676 121.5 685.5Q131 695 140 699Q149 703 157.5 703.5Q166 704 175 701ZM488 455 489 369H422V454Q422 489 422.5 514.5Q423 540 424 541Q425 542 434.5 542.0Q444 542 457 542L488 541V455ZM827 316Q827 300 826.0 294.5Q825 289 823 289Q818 289 810.0 280.5Q802 272 799 264Q796 254 796.0 244.0Q796 234 799 231Q801 230 805.0 229.0Q809 228 814 228Q818 228 822.5 227.0Q827 226 828 224Q832 220 839.5 220.0Q847 220 851 224Q853 226 858.0 227.0Q863 228 867 228Q878 228 881.0 232.5Q884 237 882 251Q881 264 875.0 274.0Q869 284 860 287L852 290V343H957V69H584V92Q584 122 576.5 130.0Q569 138 541 138H522V165Q522 176 521.5 186.0Q521 196 519 200Q517 208 508.0 211.5Q499 215 484 215H468V242Q468 275 461.0 283.5Q454 292 426 292H407V343H827V316ZM849 262Q856 257 854.0 255.0Q852 253 840 253Q827 253 825.0 255.0Q823 257 830 262Q835 266 839.0 266.0Q843 266 849 262ZM554 529Q546 525 543.0 516.0Q540 507 540 486Q540 456 548.0 448.0Q556 440 586 440Q617 440 624.5 448.0Q632 456 632 486Q632 508 629.0 516.5Q626 525 618 529Q610 532 586.0 532.0Q562 532 554 529ZM579 506V494H556V504Q556 508 556.5 511.5Q557 515 557 515Q558 516 561.5 516.5Q565 517 569 517H579ZM616 505 617 494H594V517H605Q613 516 614.5 514.5Q616 513 616 505ZM579 467V455L568 456Q560 457 558.5 458.5Q557 460 556 468L555 479H579V467ZM616 468Q616 460 614.5 458.5Q613 457 605 456L594 455V479H617ZM461 458Q460 456 459.0 453.5Q458 451 458 448Q458 445 459.0 442.5Q460 440 461 438Q463 437 465.5 436.0Q468 435 471 435Q474 435 476.5 436.0Q479 437 481 438Q482 440 483.0 442.5Q484 445 484 448Q484 451 483.0 453.5Q482 456 481 458Q479 459 476.5 460.0Q474 461 471 461Q468 461 465.5 460.0Q463 459 461 458ZM209 217Q207 214 206.0 209.0Q205 204 205 198V184H33L27 178Q22 174 21.0 169.0Q20 164 20 148Q20 133 21.0 128.0Q22 123 27 119L33 113H205V99Q205 85 209.0 79.5Q213 74 225 74Q232 74 243.0 79.0Q254 84 285 102Q305 113 321.0 122.0Q337 131 339 133Q341 135 342.0 138.5Q343 142 343 148Q343 155 342.0 158.5Q341 162 339 164Q337 166 321.0 175.0Q305 184 285 195Q254 213 243.0 218.0Q232 223 225 223Q218 223 214.5 221.5Q211 220 209 217ZM276 169Q290 161 300.0 155.0Q310 149 310 148Q310 148 298.5 141.0Q287 134 271 125L232 103L230 116Q228 133 217.0 135.5Q206 138 132 138H46V159H218L224 165Q228 169 229.0 172.5Q230 176 230 183Q230 192 231.0 193.0Q232 194 236 191Q239 190 250.5 183.5Q262 177 276 169Z" />
    </g></svg>
    