<svg xmlns="http://www.w3.org/2000/svg"
    viewBox="-80 -80 1160 1160">
    <g transform="scale(1,-1) translate(0,-1000)"><path fill="currentColor" d="M976 928H48Q48 928 48.0 928.0Q48 928 48 928Q41 928 36.5 923.5Q32 919 32 912Q32 912 32.0 912.0Q32 912 32 912V848Q32 848 32.0 848.0Q32 848 32 848Q32 841 36.5 836.5Q41 832 48 832Q48 832 48.0 832.0Q48 832 48 832H64V-16Q64 -16 64.0 -16.0Q64 -16 64 -16Q64 -23 68.5 -27.5Q73 -32 80 -32Q80 -32 80.0 -32.0Q80 -32 80 -32H352Q352 -32 352.0 -32.0Q352 -32 352 -32Q359 -32 363.5 -27.5Q368 -23 368 -16Q368 -16 368.0 -16.0Q368 -16 368 -16Q368 -15 368.0 -14.0Q368 -13 368 -12Q368 26 362.5 62.0Q357 98 347 131L348 128H676Q667 97 661.5 61.5Q656 26 656 -12Q656 -13 656.0 -14.0Q656 -15 656 -16Q656 -16 656.0 -16.0Q656 -16 656 -16Q656 -23 660.5 -27.5Q665 -32 672 -32Q672 -32 672.0 -32.0Q672 -32 672 -32H944Q944 -32 944.0 -32.0Q944 -32 944 -32Q951 -32 955.5 -27.5Q960 -23 960 -16Q960 -16 960.0 -16.0Q960 -16 960 -16V832H976Q976 832 976.0 832.0Q976 832 976 832Q983 832 987.5 836.5Q992 841 992 848Q992 848 992.0 848.0Q992 848 992 848V912Q992 912 992.0 912.0Q992 912 992 912Q992 919 987.5 923.5Q983 928 976 928Q976 928 976.0 928.0Q976 928 976 928ZM224 832Q223 767 217 704Q212 641 202.0 579.5Q192 518 178 458Q164 398 145 340L148 352H96V832ZM768 832Q769 767 774 704Q780 641 789.5 579.5Q799 518 813 458Q827 398 845 340L842 352H792Q783 366 759 409Q735 451 709.0 514.5Q683 578 663 659Q642 740 640 832ZM768 288V320H928V288ZM608 832Q610 745 628 667Q645 590 668.5 527.0Q692 464 717 419Q741 373 756 350Q747 346 741.5 338.0Q736 330 736 320V288Q736 280 739.5 273.0Q743 266 750 262Q742 253 735.0 244.0Q728 235 721 225L720 224H560V832ZM528 224H496V832H528ZM464 224H304Q297 235 289.5 244.0Q282 253 274 262Q281 266 284.5 273.0Q288 280 288 288V320Q288 330 282.5 338.0Q277 346 268 350Q283 373 307 419Q332 464 355.5 527.0Q379 590 396 667Q414 745 416 832H464ZM96 288V320H256V288ZM232 352H182Q199 406 212 463Q225 521 234.5 581.0Q244 641 250 704Q255 767 256 831V832H384Q382 740 361 659Q341 578 315.0 514.5Q289 451 265 409Q241 366 232 352ZM96 256H150Q158 239 174.0 177.5Q190 116 192 0H96ZM224 0Q222 104 209.0 166.5Q196 229 185 256H234Q248 245 290.0 184.0Q332 123 336 0ZM337 160Q333 169 329.5 177.0Q326 185 322 192H702Q698 185 694.5 177.0Q691 169 687 160ZM790 256H839Q828 229 815.0 166.5Q802 104 800 0H688Q692 123 734.0 184.0Q776 245 790 256ZM832 0Q834 116 850.0 177.5Q866 239 874 256H928V0ZM928 352H876Q858 406 845 463Q831 521 821.5 581.0Q812 641 806 704Q801 767 800 831V832H928ZM960 864H64V896H960Z" />
    </g></svg>
    